<?xml version="1.0" encoding="utf-8"?>
<!-- Generator: Adobe Illustrator 25.4.1, SVG Export Plug-In . SVG Version: 6.00 Build 0)  -->
<svg version="1.1" id="Layer_1" xmlns="http://www.w3.org/2000/svg" xmlns:xlink="http://www.w3.org/1999/xlink" x="0px" y="0px"
	 viewBox="0 0 18 18" style="enable-background:new 0 0 18 18;" xml:space="preserve">
<style type="text/css">
	.st0{fill:#231F20;}
</style>
<g id="Layer_2_00000007399005473746377700000013491372443357065893_">
</g>
<path class="st0" d="M9,0C4,0,0,4,0,9s4,9,9,9s9-4,9-9S14,0,9,0z M5.6,1.6c0.7-0.3,1.5-0.5,2.3-0.7C7.4,1.4,6.4,2.6,5.6,4.1
	C4.8,3.8,4,3.5,3.4,3C4.1,2.4,4.8,1.9,5.6,1.6z M2.9,3.6c0.7,0.6,1.5,1,2.3,1.3C4.7,6.2,4.4,7.4,4.3,8.6H0.9C0.9,6.8,1.7,5,2.9,3.6z
	 M0.9,9.4h3.5c0,1.2,0.3,2.5,0.9,3.7c-0.9,0.3-1.7,0.7-2.4,1.3C1.7,13,1,11.2,0.9,9.4z M5.6,16.4c-0.8-0.3-1.5-0.8-2.1-1.5
	c0.6-0.4,1.3-0.8,2.1-1.1c0.8,1.4,1.7,2.6,2.3,3.2C7.1,16.9,6.3,16.7,5.6,16.4z M8.6,16.6C8,16,7.2,15,6.4,13.6
	c0.8-0.2,1.5-0.4,2.2-0.4V16.6z M8.6,12.4c-0.9,0-1.7,0.1-2.6,0.4c-0.5-1.1-0.8-2.3-0.9-3.4h3.5V12.4z M8.6,8.6H5.1
	C5.2,7.5,5.5,6.3,6,5.2c0.9,0.2,1.8,0.4,2.6,0.4V8.6z M8.6,4.8C7.9,4.7,7.2,4.6,6.4,4.4c0.8-1.5,1.7-2.6,2.2-3V4.8z M17.1,8.6h-3.4
	c0-1.2-0.4-2.5-0.9-3.7c0.8-0.3,1.6-0.7,2.3-1.3C16.3,5,17,6.8,17.1,8.6z M14.6,2.9c0,0-1,0.8-2.2,1.2c0,0-1-1.8-2.3-3.2
	C10.1,0.9,13.2,1.2,14.6,2.9z M9.4,1.4c0.6,0.7,1.5,1.7,2.2,3c-0.8,0.3-1.5,0.4-2.2,0.4V1.4z M9.4,5.6c0.9,0,1.7-0.1,2.6-0.4
	c0.5,1.1,0.8,2.3,0.9,3.4H9.4V5.6z M9.4,9.4h3.5c-0.1,1.1-0.4,2.2-0.9,3.4c-0.9-0.2-1.8-0.4-2.6-0.4V9.4z M9.4,13.2
	c0.7,0,1.4,0.2,2.2,0.4c-0.8,1.4-1.7,2.5-2.2,3V13.2z M12.4,16.4c-0.7,0.3-1.5,0.5-2.3,0.6c0.6-0.6,1.5-1.7,2.3-3.2
	c0.8,0.3,1.5,0.7,2.1,1.2C13.8,15.6,13.1,16.1,12.4,16.4z M15.2,14.4c-0.8-0.5-1.6-1-2.4-1.3c0.5-1.3,0.8-2.5,1-3.7h3.4
	C17.1,11.3,16.4,13,15.2,14.4z"/>
</svg>
