<svg xmlns="http://www.w3.org/2000/svg" id="Layer_1" x="0" y="0" version="1.1" viewBox="0 0 313 55" xml:space="preserve"><defs/><g id="Layer_2_1_" fill="#fff"><g id="g39" fill="#fff"><g id="g35"><path id="path23" d="M157.1 42.2l-14.3-30.5c-2-4.4-4.6-5-6.7-5-2 0-4.8.8-6.7 5l-14 30.7c-.5 1.3-.7 2.1-.7 2.9 0 3.1 2.3 4.9 5 4.9 1.6 0 3.7-.7 5-3.8l2.1-5.1h7.4c3.9 0 4.5-2.7 4.5-4.1 0-1.3-.6-4.1-4.5-4.1h-4.1l5.8-14 11.6 27.2c1.3 3.3 3.5 3.9 5.1 3.9 2.6 0 5.1-1.8 5.1-5.1 0-.7-.1-1.8-.6-2.9"/><path id="path25" d="M264.9 42.2l14.3-30.5c2-4.4 4.6-5 6.7-5 2 0 4.8.8 6.7 5l14 30.7c.5 1.3.7 2.1.7 2.9 0 3.1-2.3 4.9-5 4.9-1.6 0-3.7-.7-5-3.8l-2.1-5.1h-7.4c-3.9 0-4.5-2.7-4.5-4.1 0-1.3.6-4.1 4.5-4.1h4.1l-5.8-14-11.6 27.2c-1.3 3.3-3.5 3.9-5.1 3.9-2.6 0-5.1-1.8-5.1-5.1 0-.7.2-1.8.6-2.9"/><path id="path27" d="M47.4 11.8L28.6.9c-2-1.2-4.5-1.2-6.5 0L3.3 11.8C1.3 13 .1 15.1.1 17.4v21.7c0 2.3 1.2 4.4 3.2 5.6L21.1 55v-5.6c0-4 2.8-4.7 4.2-4.7 1.3 0 4.2.7 4.2 4.7V55l17.9-10.3c2-1.2 3.2-3.3 3.2-5.6V17.4c0-2.3-1.2-4.4-3.2-5.6zM36 19.7h-6.5v18.8c0 4-2.8 4.7-4.2 4.7s-4.2-.7-4.2-4.7V19.7h-6.5c-3.4 0-4-2.4-4-3.6 0-1.2.5-3.6 4-3.6H36c3.4 0 4 2.4 4 3.6s-.6 3.6-4 3.6z"/><path id="path29" d="M167.9 42.7c0-2.6 2-4.8 4.7-4.8 1 0 2.1.4 3.5 1.4 1.6 1.1 4.5 2.4 7 2.4s5.1-1.3 5.1-4.6c0-3.2-3.2-4.2-8.8-6-5.4-1.7-10.8-4.5-10.8-12.1 0-9.4 8.5-13.2 16.3-13.2 3.2 0 7 .9 9.6 2.4 2.1 1.3 2.7 2.7 2.7 4.2 0 2.4-1.8 4.5-4.3 4.5-.8 0-1.5-.2-3-1-2.4-1.3-4.1-1.8-5.5-1.8-3 0-5.6 1.2-5.6 4.2 0 2.8 2.5 3.7 6.5 5 5.7 1.8 13.1 4.3 13.1 12.7 0 9.7-7.8 14.1-16.2 14.1-4.2 0-9.5-1.4-12.2-3.4-1.6-1.4-2.1-2.8-2.1-4"/><path id="path31" d="M242.3 8.6c1.4-1.4 2.8-1.9 4.1-1.9 2.7 0 4.7 1.9 4.7 4.5 0 1.1-.4 2.6-2.1 4.2l-12.6 11.3 14.4 14.2c1.5 1.5 2 2.7 2 4.1 0 2.9-2.1 5.1-5.1 5.1-1.3 0-2.7-.5-4.2-2.1l-17.2-18h-.1v14.4c0 4.8-3.4 5.6-5 5.6s-5-.8-5-5.6V12.2c0-4.8 3.4-5.6 5-5.6s5 .8 5 5.6v12.2h.2l15.9-15.8z"/><path id="path33" d="M76.8 15.9c-4.2 0-4.8-2.9-4.8-4.4 0-1.4.7-4.4 4.8-4.4h25.8c4.2 0 4.8 2.9 4.8 4.4 0 1.4-.7 4.4-4.8 4.4H95v28.4c0 4.9-3.5 5.7-5.1 5.7-1.7 0-5.1-.8-5.1-5.7V15.9h-8z"/></g><path id="path37" d="M303.1 7.8v3.4c0 .6.4.7.6.7s.6-.1.6-.7V7.8h.9c.5 0 .6-.4.6-.5 0-.2-.1-.5-.6-.5h-3.1c-.5 0-.6.4-.6.5 0 .2.1.5.6.5h1zm6.6 2.7l-1.3-3.1c-.3-.6-.6-.7-.8-.7-.2 0-.7.1-.7.8v3.8c0 .6.4.6.6.6s.6-.1.6-.6V8.9l1 2.4c.2.5.5.6.7.6s.5-.1.7-.6l1.1-2.4v2.3c0 .6.4.7.6.7s.6-.1.6-.7V7.5c0-.7-.5-.8-.7-.8s-.6.1-.8.7l-1.6 3.1z"/></g></g></svg>