<svg version="1.1" id="Layer_1" xmlns="http://www.w3.org/2000/svg" x="0" y="0" viewBox="0 0 245 43.1" xml:space="preserve"><style>.st1{display:inline}.st3{fill:#010101}</style><g id="Layer_2_1_"><path class="st3" d="M123.1 33L111.9 9.1c-1.6-3.5-3.6-3.9-5.2-3.9s-3.8.6-5.3 3.9L90.5 33.2c-.4 1-.5 1.7-.5 2.2 0 2.4 1.8 3.8 3.9 3.8 1.3 0 2.9-.5 3.9-3l1.7-4h5.8c3 0 3.5-2.1 3.5-3.2 0-1-.5-3.2-3.5-3.2H102l4.6-11 9.1 21.3c1 2.6 2.7 3 4 3 2.1 0 4-1.4 4-4-.1-.4-.2-1.2-.6-2.1M207.7 33l11.2-23.9c1.6-3.5 3.6-3.9 5.2-3.9s3.8.6 5.3 3.9l10.9 24.1c.4 1 .5 1.7.5 2.2 0 2.4-1.8 3.8-3.9 3.8-1.3 0-2.9-.5-3.9-3l-1.7-4h-5.8c-3 0-3.5-2.1-3.5-3.2 0-1 .5-3.2 3.5-3.2h3.2l-4.6-11-9.1 21.3c-1 2.6-2.7 3-4 3-2.1 0-4-1.4-4-4 .2-.4.3-1.2.7-2.1"/><path d="M37.1 9.2L22.4.7c-1.6-.9-3.5-.9-5 0L2.5 9.2C1 10.1 0 11.8 0 13.6v17.1c0 1.8 1 3.5 2.5 4.4l14 8.1v-4.4c0-3.2 2.2-3.7 3.3-3.7 1 0 3.3.5 3.3 3.7v4.4l14-8.1c1.6-.9 2.5-2.6 2.5-4.4V13.6c.1-1.8-.9-3.5-2.5-4.4zm-8.9 6.2h-5.1v14.7c0 3.2-2.2 3.7-3.3 3.7-1.1 0-3.3-.5-3.3-3.7V15.4h-5.1c-2.7 0-3.1-1.9-3.1-2.8 0-.9.4-2.8 3.1-2.8h16.7c2.7 0 3.1 1.9 3.1 2.8.1.9-.3 2.8-3 2.8z"/><path class="st3" d="M131.6 33.4c0-2 1.6-3.8 3.7-3.8.8 0 1.7.3 2.7 1.1 1.2.9 3.5 1.9 5.5 1.9s4-1 4-3.6c0-2.5-2.5-3.3-6.9-4.7-4.2-1.3-8.5-3.5-8.5-9.5 0-7.3 6.7-10.4 12.8-10.4 2.5 0 5.5.7 7.5 1.9 1.7 1 2.1 2.1 2.1 3.3 0 1.9-1.4 3.5-3.3 3.5-.7 0-1.2-.1-2.3-.8-1.9-1-3.2-1.4-4.3-1.4-2.3 0-4.4.9-4.4 3.3 0 2.2 2 2.9 5.1 3.9 4.5 1.4 10.3 3.3 10.3 10 0 7.6-6.1 11-12.7 11-3.3 0-7.5-1.1-9.6-2.7-1.3-1-1.7-2.1-1.7-3M189.9 6.7c1.1-1.1 2.2-1.5 3.2-1.5 2.1 0 3.7 1.5 3.7 3.6 0 .9-.3 2.1-1.7 3.3l-9.8 8.9 11.3 11c1.2 1.2 1.6 2.1 1.6 3.2 0 2.3-1.7 4-4 4-1 0-2.1-.4-3.3-1.7l-13.6-14h-.1v11.3c0 3.8-2.7 4.4-3.9 4.4-1.3 0-3.9-.6-3.9-4.4V9.6c0-3.8 2.7-4.4 3.9-4.4 1.3 0 3.9.6 3.9 4.4v9.6h.1l12.6-12.5zM60.2 12.4c-3.3 0-3.8-2.3-3.8-3.4s.5-3.4 3.8-3.4h20.3c3.3 0 3.8 2.3 3.8 3.4s-.5 3.4-3.8 3.4h-6v22.3c0 3.8-2.7 4.5-4 4.5-1.3 0-4-.7-4-4.5V12.4h-6.3zM237.6 6v2.7c0 .4.3.5.5.5.1 0 .5-.1.5-.5V6h.7c.4 0 .4-.3.4-.4s0-.4-.4-.4h-2.4c-.4 0-.4.3-.4.4s0 .4.4.4h.7zm5.2 2.1l-1.1-2.4c-.2-.5-.5-.6-.7-.6s-.6.1-.6.7v2.9c0 .4.3.5.4.5.1 0 .4-.1.4-.5V6.9l.8 1.9c.2.4.4.4.5.4.2 0 .4 0 .5-.4l.8-1.9v1.8c0 .4.3.5.4.5.1 0 .4-.1.4-.5V5.8c0-.5-.4-.7-.6-.7-.2 0-.4 0-.7.6l-.5 2.4z"/></g></svg>