<svg width="23" height="23" viewBox="0 0 23 23" fill="none" xmlns="http://www.w3.org/2000/svg">
<circle cx="11.5" cy="11.5" r="11" stroke="white"/>
<path d="M19.5 3.76123C17.4301 5.76601 14.6091 6.99986 11.5 6.99986C8.51614 6.99986 5.79772 5.86347 3.75391 3.99986" stroke="white"/>
<path d="M19.5 19.2388C17.4301 17.234 14.6091 16.0001 11.5 16.0001C8.51614 16.0001 5.79772 17.1365 3.75391 19.0001" stroke="white"/>
<path d="M17.5 11.5C17.5 14.6056 16.7874 17.3926 15.6609 19.3857C14.5258 21.394 13.0353 22.5 11.5 22.5C9.96471 22.5 8.4742 21.394 7.33909 19.3857C6.21257 17.3926 5.5 14.6056 5.5 11.5C5.5 8.39436 6.21257 5.60737 7.33909 3.6143C8.4742 1.60603 9.96471 0.5 11.5 0.5C13.0353 0.5 14.5258 1.60603 15.6609 3.6143C16.7874 5.60737 17.5 8.39436 17.5 11.5Z" stroke="white"/>
<line x1="1" y1="11.5" x2="23" y2="11.5" stroke="white"/>
<line x1="11.5" y1="1" x2="11.5" y2="23" stroke="white"/>
</svg>
