<?xml version="1.0" encoding="utf-8"?>
<!-- Generator: Adobe Illustrator 28.0.0, SVG Export Plug-In . SVG Version: 6.00 Build 0)  -->
<svg version="1.1" xmlns="http://www.w3.org/2000/svg" xmlns:xlink="http://www.w3.org/1999/xlink" x="0px" y="0px"
	 viewBox="0 0 408.8 408.8" style="enable-background:new 0 0 408.8 408.8;" xml:space="preserve">
<style type="text/css">
	.st0{fill:#FFFFFF;}
</style>
<g id="Layer_2">
</g>
<g id="Layer_1">
	<path class="st0" d="M254.3,204.4c0-27.6-22.3-49.9-49.9-49.9c-27.5,0-49.9,22.3-49.9,49.9c0,27.5,22.3,49.9,49.9,49.9
		C232,254.3,254.3,231.9,254.3,204.4 M305.8,123.3c0,10.8-8.7,19.6-19.6,19.6c-10.8,0-19.6-8.8-19.6-19.6s8.7-19.6,19.6-19.6
		C297,103.8,305.8,112.5,305.8,123.3 M286.1,204.4c0,45-36.6,81.7-81.7,81.7c-45,0-81.7-36.6-81.7-81.7c0-45,36.6-81.7,81.7-81.7
		C249.4,122.7,286.1,159.3,286.1,204.4 M330.5,268.2V140.6c0-34.4-27.9-62.3-62.3-62.3H140.6c-34.4,0-62.3,27.9-62.3,62.3v127.6
		c0,34.4,27.9,62.3,62.3,62.3h127.6C302.6,330.5,330.5,302.6,330.5,268.2 M362.3,268.2c0,51.9-42.2,94.1-94,94.1H140.6
		c-51.9,0-94.1-42.2-94.1-94.1V140.6c0-51.9,42.2-94,94.1-94h127.6c51.9,0,94,42.2,94,94V268.2z M408.8,353.7V55.1
		c0-30.4-24.7-55.1-55.1-55.1H55.1C24.7,0,0,24.7,0,55.1v298.6c0,30.4,24.7,55.1,55.1,55.1h298.6
		C384.1,408.8,408.8,384.1,408.8,353.7"/>
</g>
</svg>
