<?xml version="1.0" encoding="utf-8"?>
<!-- Generator: Adobe Illustrator 28.0.0, SVG Export Plug-In . SVG Version: 6.00 Build 0)  -->
<svg version="1.1" xmlns="http://www.w3.org/2000/svg" xmlns:xlink="http://www.w3.org/1999/xlink" x="0px" y="0px"
	 viewBox="0 0 408.8 408.8" style="enable-background:new 0 0 408.8 408.8;" xml:space="preserve">
<style type="text/css">
	.st0{fill:#FFFFFF;}
</style>
<g id="Layer_2">
</g>
<g id="Layer_1">
	<path class="st0" d="M204.4,0C91.5,0,0,91.5,0,204.4c0,112.9,91.5,204.4,204.4,204.4s204.4-91.5,204.4-204.4
		C408.8,91.5,317.3,0,204.4,0z M328.2,251.9c0,21.6-17.7,39.3-39.3,39.3c0,0-44.9,2-84.5,2s-84.5-2-84.5-2
		c-21.6,0-39.3-17.7-39.3-39.3c0,0-2-32.2-2-47.5c0-15.4,2-47.5,2-47.5c0-21.6,17.7-39.3,39.3-39.3c0,0,40-2,84.5-2s84.5,2,84.5,2
		c21.6,0,39.3,17.7,39.3,39.3c0,0,2,19,2,45.3S328.2,251.9,328.2,251.9z M245.6,208.5l-79.7,38c-2.1,1-4.6-0.5-4.6-2.9v-78.4
		c0-2.4,2.5-3.9,4.6-2.8l79.7,40.4C248,203.9,248,207.3,245.6,208.5"/>
</g>
</svg>
