<?xml version="1.0" encoding="utf-8"?>
<!-- Generator: Adobe Illustrator 28.0.0, SVG Export Plug-In . SVG Version: 6.00 Build 0)  -->
<svg version="1.1" xmlns="http://www.w3.org/2000/svg" xmlns:xlink="http://www.w3.org/1999/xlink" x="0px" y="0px"
	 viewBox="0 0 408.8 408.8" style="enable-background:new 0 0 408.8 408.8;" xml:space="preserve">
<style type="text/css">
	.st0{fill:#FFFFFF;}
</style>
<g id="Layer_2">
</g>
<g id="Layer_1">
	<path class="st0" d="M353.7,0H55.1C24.7,0,0,24.7,0,55.1v298.6c0,30.4,24.7,55.1,55.1,55.1h298.6c30.4,0,55.1-24.7,55.1-55.1V55.1
		C408.8,24.7,384.1,0,353.7,0z M126.5,353c0,5.9-4.8,10.7-10.8,10.7H69.9c-5.9,0-10.8-4.8-10.8-10.7v-192c0-5.9,4.8-10.8,10.8-10.8
		h45.8c5.9,0,10.8,4.8,10.8,10.8V353z M92.8,132.1c-24,0-43.5-19.5-43.5-43.5c0-24,19.5-43.5,43.5-43.5c24.1,0,43.5,19.5,43.5,43.5
		C136.3,112.6,116.9,132.1,92.8,132.1z M365.9,353.8c0,5.5-4.4,9.9-9.9,9.9h-49.2c-5.5,0-9.9-4.4-9.9-9.9v-90.1
		c0-13.4,3.9-58.9-35.1-58.9c-30.3,0-36.4,31.1-37.7,45.1v103.9c0,5.5-4.4,9.9-9.9,9.9h-47.5c-5.5,0-9.9-4.4-9.9-9.9V160.1
		c0-5.5,4.4-9.9,9.9-9.9h47.5c5.5,0,9.9,4.4,9.9,9.9v16.7c11.2-16.9,27.9-29.9,63.5-29.9c78.7,0,78.2,73.5,78.2,113.9V353.8z"/>
</g>
</svg>
