<?xml version="1.0" encoding="utf-8"?>
<!-- Generator: Adobe Illustrator 28.0.0, SVG Export Plug-In . SVG Version: 6.00 Build 0)  -->
<svg version="1.1" xmlns="http://www.w3.org/2000/svg" xmlns:xlink="http://www.w3.org/1999/xlink" x="0px" y="0px"
	 viewBox="0 0 408.8 408.8" style="enable-background:new 0 0 408.8 408.8;" xml:space="preserve">
<style type="text/css">
	.st0{fill:#FFFFFF;}
</style>
<g id="Layer_2">
</g>
<g id="Layer_1">
	<path class="st0" d="M204.4,0C91.5,0,0,91.5,0,204.4c0,112.9,91.5,204.4,204.4,204.4c112.9,0,204.4-91.5,204.4-204.4
		C408.8,91.5,317.3,0,204.4,0z M271.4,180l-4.3,35.9c-0.4,3.4-3.3,6-6.8,6h-38.5l-0.2,111.5h-48.6l0.2-111.5h-29
		c-3.8,0-6.8-3-6.8-6.8l-0.1-35.9c0-3.8,3-6.9,6.8-6.9h28.9v-34.7c0-40.3,24.6-62.2,60.6-62.2h29.5c3.8,0,6.8,3.1,6.8,6.8v30.3
		c0,3.8-3.1,6.8-6.8,6.8H245c-19.5,0-23.3,9.3-23.3,22.9v30.1h43C268.7,172.3,271.9,175.9,271.4,180z"/>
</g>
</svg>
