<?xml version="1.0" encoding="utf-8"?>
<!-- Generator: Adobe Illustrator 28.0.0, SVG Export Plug-In . SVG Version: 6.00 Build 0)  -->
<svg version="1.1" xmlns="http://www.w3.org/2000/svg" xmlns:xlink="http://www.w3.org/1999/xlink" x="0px" y="0px"
	 viewBox="0 0 408.8 408.8" style="enable-background:new 0 0 408.8 408.8;" xml:space="preserve">
<style type="text/css">
	.st0{fill:#FFFFFF;}
</style>
<g id="Layer_2">
</g>
<g id="Layer_1">
	<g>
		<polygon class="st0" points="206.4,187.5 153.6,112 125.5,112 190.8,205.6 199.1,217.3 199.1,217.3 255,297.4 283.2,297.4 
			214.6,199.3 		"/>
		<path class="st0" d="M204.4,0C91.5,0,0,91.5,0,204.4s91.5,204.4,204.4,204.4s204.4-91.5,204.4-204.4S317.3,0,204.4,0z
			 M246.4,310.6l-56.6-82.4l-70.9,82.4h-18.3l81.1-94.3l-81.1-118h61.9l53.6,78.1l67.2-78.1h18.3l-77.3,89.9h0l84.1,122.4H246.4z"/>
	</g>
</g>
</svg>
