<?xml version="1.0" encoding="utf-8"?>
<!-- Generator: Adobe Illustrator 27.8.1, SVG Export Plug-In . SVG Version: 6.00 Build 0)  -->
<svg version="1.1" id="Layer_1" xmlns="http://www.w3.org/2000/svg" xmlns:xlink="http://www.w3.org/1999/xlink" x="0px" y="0px"
	 viewBox="0 0 130 130" style="enable-background:new 0 0 130 130;" xml:space="preserve">
<style type="text/css">
	.st0{fill:#7C868D;}
	.st1{fill:#FFFFFF;}
</style>
<g>
	<path class="st0" d="M130,65c0,35.9-29.1,65-65,65S0,100.9,0,65S29.1,0,65,0S130,29.1,130,65"/>
	<path class="st1" d="M93.4,97.1H36.6c-5.3,0-9.7-4.3-9.7-9.7V49.6c0-5.3,4.3-9.7,9.7-9.7h10.9l1-3.1c1-3.6,3.5-4,4.5-4H77
		c2.9,0,3.9,2.6,4.5,3.8c0,0,0,0.1,0.1,0.2l1,3.1h10.9c5.3,0,9.7,4.3,9.7,9.7v37.9C103.1,92.8,98.8,97.1,93.4,97.1z M36.6,44.1
		c-3,0-5.5,2.4-5.5,5.5v37.9c0,3,2.4,5.5,5.5,5.5h56.9c3,0,5.4-2.4,5.4-5.5V49.6c0-3-2.4-5.5-5.4-5.5H81.1c-0.9,0-1.7-0.6-2-1.4
		l-1.5-4.4c-0.1-0.3-0.4-0.9-0.6-1.2H53c-0.1,0-0.3,0.3-0.5,1l-1.5,4.6c-0.3,0.9-1.1,1.4-2,1.4H36.6z M65,85.5c-9.4,0-17-7.6-17-17
		c0-9.4,7.6-17,17-17c9.4,0,17,7.6,17,17C82,77.9,74.4,85.5,65,85.5z M65,55.7c-7,0-12.8,5.7-12.8,12.8c0,7,5.7,12.8,12.8,12.8
		c7,0,12.8-5.7,12.8-12.8C77.8,61.5,72,55.7,65,55.7z M94,50.8c0-1.9-1.5-3.4-3.4-3.4c-1.9,0-3.4,1.5-3.4,3.4c0,1.9,1.5,3.4,3.4,3.4
		C92.5,54.3,94,52.7,94,50.8"/>
</g>
</svg>
