<?xml version="1.0" encoding="utf-8"?>
<!-- Generator: Adobe Illustrator 27.8.1, SVG Export Plug-In . SVG Version: 6.00 Build 0)  -->
<svg version="1.1" id="Layer_1" xmlns="http://www.w3.org/2000/svg" xmlns:xlink="http://www.w3.org/1999/xlink" x="0px" y="0px"
	 viewBox="0 0 130 130" style="enable-background:new 0 0 130 130;" xml:space="preserve">
<style type="text/css">
	.st0{fill:#7C868D;}
	.st1{fill:#FFFFFF;}
</style>
<g>
	<path class="st0" d="M130,65c0,35.9-29.1,65-65,65S0,100.9,0,65S29.1,0,65,0S130,29.1,130,65"/>
	<path class="st1" d="M44.4,100.3c-3.6,0-7.3-1.4-10-4.1l-0.5-0.5c-2.7-2.7-4.1-6.2-4.1-10s1.5-7.3,4.1-10l17.9-17.9
		c5.5-5.5,14.5-5.5,20,0l0.5,0.5c0.8,0.8,0.8,2.2,0,3c-0.8,0.8-2.2,0.8-3,0l-0.5-0.5c-3.9-3.9-10.2-3.9-14.1,0L36.9,78.6
		c-1.9,1.9-2.9,4.4-2.9,7c0,2.7,1,5.2,2.9,7l0.5,0.5c3.9,3.9,10.2,3.9,14.1,0l14.2-14.2c0.8-0.8,2.1-0.8,3,0c0.8,0.8,0.8,2.1,0,3
		L54.4,96.1C51.6,98.9,48,100.3,44.4,100.3z"/>
	<path class="st1" d="M71.4,73.1c-3.6,0-7.3-1.4-10-4.1L61,68.5c-0.8-0.8-0.8-2.2,0-3c0.8-0.8,2.2-0.8,3,0l0.5,0.5
		c3.9,3.9,10.2,3.9,14.1,0l17.9-17.9c3.9-3.9,3.9-10.2,0-14.1l-0.5-0.5c-3.9-3.9-10.2-3.9-14.1,0L67.6,47.8c-0.8,0.8-2.1,0.8-3,0
		c-0.8-0.8-0.8-2.1,0-3l14.2-14.2c5.5-5.5,14.5-5.5,20,0l0.5,0.5c5.5,5.5,5.5,14.5,0,20L81.4,69C78.7,71.8,75.1,73.1,71.4,73.1z"/>
</g>
</svg>
