<?xml version="1.0" encoding="utf-8"?>
<!-- Generator: Adobe Illustrator 27.8.1, SVG Export Plug-In . SVG Version: 6.00 Build 0)  -->
<svg version="1.1" id="Layer_1" xmlns="http://www.w3.org/2000/svg" xmlns:xlink="http://www.w3.org/1999/xlink" x="0px" y="0px"
	 viewBox="0 0 130 130" style="enable-background:new 0 0 130 130;" xml:space="preserve">
<style type="text/css">
	.st0{fill:#7C868D;}
	.st1{fill:#FFFFFF;}
</style>
<path class="st0" d="M130,65c0,35.9-29.1,65-65,65S0,100.9,0,65S29.1,0,65,0S130,29.1,130,65"/>
<g>
	<path class="st1" d="M92.6,51.6L92.6,51.6c-0.2-0.2-0.3-0.3-0.4-0.4L79.9,38.8l-8.8-8.7c-0.1-0.1-0.3-0.2-0.4-0.3
		c-0.1-0.1-0.2-0.1-0.2-0.1c-0.1,0-0.1-0.1-0.2-0.1c-0.1-0.1-0.2-0.1-0.3-0.1l0,0c-0.2-0.1-0.5-0.1-0.8-0.2h-0.1H69H41.9
		c-1.7,0-3.1,1.4-3.1,3.1v65.4c0,1.7,1.4,3.1,3.1,3.1h48.2c1.7,0,3.1-1.4,3.1-3.1V53.3C93.1,52.7,93,52.1,92.6,51.6z M87.4,52.2
		H70.2V35.1l0.3,0.3L87.4,52.2z M43.1,96.5v-63h22.8v19.9c0,1.7,1.4,3.1,3.1,3.1h19.9v40.1L43.1,96.5L43.1,96.5z"/>
</g>
</svg>
