<?xml version="1.0" encoding="utf-8"?>
<!-- Generator: Adobe Illustrator 27.8.1, SVG Export Plug-In . SVG Version: 6.00 Build 0)  -->
<svg version="1.1" id="Layer_1" xmlns="http://www.w3.org/2000/svg" xmlns:xlink="http://www.w3.org/1999/xlink" x="0px" y="0px"
	 viewBox="0 0 130 130" style="enable-background:new 0 0 130 130;" xml:space="preserve">
<style type="text/css">
	.st0{fill:#77828A;}
	.st1{fill:#FFFFFF;}
</style>
<g>
	<circle class="st0" cx="65" cy="65" r="65"/>
	<g>
		<path class="st1" d="M63.4,69.6c0.4,0.4,1,0.7,1.6,0.7c0,0,0,0,0,0c0,0,0,0,0,0c0.5,0,1.1-0.2,1.5-0.6l9.8-9.8
			c0.8-0.8,0.8-2.2,0-3c-0.8-0.8-2.2-0.8-3,0l-6.2,6.2V43.5c0-1.2-0.9-2.1-2.1-2.1c-1.2,0-2.1,0.9-2.1,2.1v19.6l-6.2-6.2
			c-0.8-0.8-2.2-0.8-3,0c-0.8,0.8-0.8,2.2,0,3L63.4,69.6z"/>
		<path class="st1" d="M102.3,29.7H27.7c-1.2,0-2.2,1-2.2,2.2v47.9c0,1.2,1,2.2,2.2,2.2h29.1v15.1h-6.3c-1.2,0-2.1,0.9-2.1,2.1
			s0.9,2.1,2.1,2.1h29c1.2,0,2.1-0.9,2.1-2.1s-0.9-2.1-2.1-2.1h-6.3V82h29.1c1.2,0,2.2-1,2.2-2.2V31.9
			C104.6,30.7,103.6,29.7,102.3,29.7z M69,97.1H61V82H69V97.1z M100.1,77.6H29.9V34.1h70.2V77.6z"/>
	</g>
</g>
</svg>
