<?xml version="1.0" encoding="utf-8"?>
<!-- Generator: Adobe Illustrator 27.8.1, SVG Export Plug-In . SVG Version: 6.00 Build 0)  -->
<svg version="1.1" id="Layer_1"
	xmlns="http://www.w3.org/2000/svg"
	xmlns:xlink="http://www.w3.org/1999/xlink" x="0px" y="0px" viewBox="0 0 130 130" style="enable-background:new 0 0 130 130;" xml:space="preserve">
	<style type="text/css">
	.st0{fill:#7C868D;}
	.st1{fill:#FFFFFF;}
	</style>
	<g>
		<g>
			<path class="st0" d="M130,65c0,35.9-29.1,65-65,65S0,100.9,0,65S29.1,0,65,0S130,29.1,130,65"/>
		</g>
		<path class="st1" d="M38.1,97.1c-0.4,0-0.8-0.1-1.1-0.3c-0.6-0.4-1-1.1-1-1.8V35c0-0.7,0.4-1.4,1-1.8c0.6-0.4,1.4-0.4,2-0.1
		l60.2,30c0.7,0.4,1.2,1.1,1.2,1.9s-0.4,1.5-1.2,1.9L39,96.9C38.7,97,38.4,97.1,38.1,97.1z M40.2,38.4v53.3L93.6,65L40.2,38.4z"/>
	</g>
</svg>
